<?xml version="1.0" encoding="utf-8"?>
<!-- Generator: Adobe Illustrator 22.1.0, SVG Export Plug-In . SVG Version: 6.00 Build 0)  -->
<svg version="1.1" id="Capa_1" xmlns="http://www.w3.org/2000/svg" xmlns:xlink="http://www.w3.org/1999/xlink" x="0px" y="0px"
	 viewBox="0 0 158 133" style="enable-background:new 0 0 158 133;" xml:space="preserve">
<style type="text/css">
	.st0{fill:#FFFFFF;}
	.st1{opacity:0.5;fill:#C4C4C4;enable-background:new    ;}
	.st2{fill:#6754C8;}
	.st3{fill:#2E3192;}
	.st4{fill-opacity:0;}
</style>
<path class="st0" d="M79,71C41.2,71,9.6,97.5,1.9,133h154.3C148.4,97.5,116.8,71,79,71z"/>
<path class="st1" d="M130.3,115.2c-6.9,7.7-15.5,13.8-25.2,17.8h4.9C118,128.6,124.9,122.5,130.3,115.2z"/>
<path class="st1" d="M27.7,115.2C33.1,122.5,40,128.6,48,133h4.9C43.2,129,34.6,122.9,27.7,115.2z"/>
<path class="st0" d="M148,69.1c0-13.7-4-26.5-10.9-37.2c-13.6-11.3-33.7-10.6-46.5,2.1c-6.1,6.1-9.5,14.1-10,22.1
	c-0.1,0.8-0.9,1.3-1.8,1.4c-0.8,0.1-1.7-0.2-1.7-0.9C76.7,48.4,73.3,40.2,67,34c-12.5-12.5-32.2-13.4-45.8-2.7
	C14.2,42.1,10,55.1,10,69.1C10,98,27.7,122.7,52.9,133h52.3C130.3,122.7,148,98,148,69.1z"/>
<path class="st2" d="M67,34c7.4,7.4,10.7,17.3,10,27h3.6c-0.7-9.7,2.6-19.6,10-27c12.7-12.8,32.9-13.5,46.5-2.1
	C124.8,12.7,103.4,0,79,0C54.8,0,33.6,12.4,21.3,31.3C34.8,20.5,54.5,21.4,67,34z"/>
<path class="st3" d="M96.4,48.3c0-6.2-8-16.5-17.3-16.5S62.5,42.1,62.5,48.3l16.9,14.5L96.4,48.3z"/>
<rect x="41" y="33" class="st4" width="11.2" height="9.2"/>
<path class="st3" d="M45.9,42.2c3.7,0.4,6.8-2.1,6.3-5.2c-0.3-2.1-2.3-3.7-4.8-4c-3.7-0.4-6.8,2.1-6.3,5.2
	C41.4,40.3,43.4,41.9,45.9,42.2z"/>
<rect x="105.8" y="33" class="st4" width="11.2" height="9.2"/>
<path class="st3" d="M110.7,42.2c3.7,0.4,6.8-2.1,6.3-5.2c-0.3-2.1-2.3-3.7-4.8-4c-3.7-0.4-6.8,2.1-6.3,5.2
	C106.1,40.3,108.2,41.9,110.7,42.2z"/>
<path class="st0" d="M77,61"/>
</svg>
